<svg width="28" height="28" viewBox="0 0 28 28" fill="none" xmlns="http://www.w3.org/2000/svg">
<path d="M18.6667 11.6667C18.6667 12.9044 18.175 14.0913 17.2998 14.9665C16.4247 15.8417 15.2377 16.3334 14 16.3334C12.7623 16.3334 11.5753 15.8417 10.7002 14.9665C9.82501 14.0913 9.33334 12.9044 9.33334 11.6667" stroke="white" stroke-width="2.33333" stroke-linecap="round" stroke-linejoin="round"/>
<path d="M3.62015 7.03967H24.3798" stroke="white" stroke-width="2.33333" stroke-linecap="round" stroke-linejoin="round"/>
<path d="M3.96667 6.37815C3.66375 6.78204 3.5 7.27328 3.5 7.77815V23.3333C3.5 23.9522 3.74583 24.5456 4.18342 24.9832C4.621 25.4208 5.21449 25.6666 5.83333 25.6666H22.1667C22.7855 25.6666 23.379 25.4208 23.8166 24.9832C24.2542 24.5456 24.5 23.9522 24.5 23.3333V7.77815C24.5 7.27328 24.3363 6.78204 24.0333 6.37815L21.7 3.26665C21.4827 2.97686 21.2008 2.74165 20.8768 2.57965C20.5528 2.41765 20.1956 2.33331 19.8333 2.33331H8.16667C7.80443 2.33331 7.44716 2.41765 7.12317 2.57965C6.79917 2.74165 6.51734 2.97686 6.3 3.26665L3.96667 6.37815Z" stroke="white" stroke-width="2.33333" stroke-linecap="round" stroke-linejoin="round"/>
</svg>
