<svg width="28" height="28" viewBox="0 0 28 28" fill="none" xmlns="http://www.w3.org/2000/svg">
<path d="M13.4458 2.67748C13.497 2.57418 13.5759 2.48723 13.6739 2.42644C13.7718 2.36565 13.8847 2.33344 14 2.33344C14.1153 2.33344 14.2282 2.36565 14.3261 2.42644C14.4241 2.48723 14.503 2.57418 14.5542 2.67748L17.2492 8.13631C17.4267 8.49561 17.6888 8.80645 18.0129 9.04217C18.337 9.27789 18.7135 9.43144 19.11 9.48964L25.137 10.3716C25.2512 10.3882 25.3585 10.4364 25.4467 10.5107C25.535 10.5851 25.6007 10.6826 25.6364 10.7924C25.672 10.9021 25.6763 11.0196 25.6487 11.1317C25.6211 11.2437 25.5626 11.3458 25.48 11.4263L21.1213 15.6706C20.8339 15.9508 20.6188 16.2965 20.4946 16.6782C20.3705 17.0599 20.3409 17.466 20.4085 17.8616L21.4375 23.8583C21.4577 23.9725 21.4453 24.09 21.4019 24.1974C21.3585 24.3049 21.2858 24.398 21.192 24.4661C21.0982 24.5343 20.9871 24.5746 20.8715 24.5827C20.7559 24.5907 20.6403 24.5661 20.538 24.5116L15.1503 21.679C14.7953 21.4926 14.4004 21.3952 13.9994 21.3952C13.5985 21.3952 13.2035 21.4926 12.8485 21.679L7.462 24.5116C7.35972 24.5658 7.2443 24.5901 7.12886 24.5819C7.01343 24.5737 6.90261 24.5333 6.80901 24.4652C6.71542 24.3972 6.64281 24.3042 6.59944 24.1969C6.55606 24.0896 6.54367 23.9723 6.56367 23.8583L7.5915 17.8628C7.6594 17.467 7.62998 17.0606 7.5058 16.6787C7.38161 16.2968 7.16638 15.9508 6.87867 15.6706L2.52 11.4275C2.4367 11.347 2.37766 11.2448 2.34963 11.1324C2.32159 11.02 2.32568 10.902 2.36143 10.7919C2.39718 10.6817 2.46315 10.5838 2.55183 10.5093C2.64051 10.4348 2.74832 10.3867 2.863 10.3705L8.88884 9.48964C9.2858 9.43189 9.66279 9.27854 9.98735 9.0428C10.3119 8.80705 10.5743 8.49596 10.752 8.13631L13.4458 2.67748Z" stroke="white" stroke-width="2.33333" stroke-linecap="round" stroke-linejoin="round"/>
</svg>
