<svg width="28" height="28" viewBox="0 0 28 28" fill="none" xmlns="http://www.w3.org/2000/svg">
<path d="M18.6667 24.5V22.1667C18.6667 20.929 18.175 19.742 17.2998 18.8668C16.4247 17.9917 15.2377 17.5 14 17.5H7C5.76233 17.5 4.57534 17.9917 3.70017 18.8668C2.825 19.742 2.33334 20.929 2.33334 22.1667V24.5" stroke="white" stroke-width="2.33333" stroke-linecap="round" stroke-linejoin="round"/>
<path d="M18.6667 3.64929C19.6674 3.90872 20.5536 4.4931 21.1863 5.3107C21.819 6.1283 22.1622 7.13283 22.1622 8.16663C22.1622 9.20042 21.819 10.205 21.1863 11.0226C20.5536 11.8402 19.6674 12.4245 18.6667 12.684" stroke="white" stroke-width="2.33333" stroke-linecap="round" stroke-linejoin="round"/>
<path d="M25.6667 24.5V22.1667C25.6659 21.1327 25.3217 20.1282 24.6883 19.311C24.0548 18.4938 23.1678 17.9102 22.1667 17.6517" stroke="white" stroke-width="2.33333" stroke-linecap="round" stroke-linejoin="round"/>
<path d="M10.5 12.8333C13.0773 12.8333 15.1667 10.744 15.1667 8.16667C15.1667 5.58934 13.0773 3.5 10.5 3.5C7.92267 3.5 5.83333 5.58934 5.83333 8.16667C5.83333 10.744 7.92267 12.8333 10.5 12.8333Z" stroke="white" stroke-width="2.33333" stroke-linecap="round" stroke-linejoin="round"/>
</svg>
