<svg width="20" height="20" viewBox="0 0 20 20" fill="none" xmlns="http://www.w3.org/2000/svg">
<path d="M3.33331 11.6667C3.17561 11.6672 3.021 11.623 2.88743 11.5392C2.75387 11.4553 2.64683 11.3353 2.57876 11.1931C2.51069 11.0508 2.48438 10.8922 2.50289 10.7356C2.52139 10.5789 2.58396 10.4308 2.68331 10.3083L10.9333 1.80834C10.9952 1.73691 11.0795 1.68864 11.1725 1.67145C11.2654 1.65427 11.3614 1.66919 11.4447 1.71376C11.5281 1.75834 11.5938 1.82992 11.6311 1.91677C11.6684 2.00361 11.675 2.10055 11.65 2.19168L10.05 7.20834C10.0028 7.33461 9.98695 7.47044 10.0038 7.60418C10.0206 7.73792 10.0697 7.86558 10.1467 7.9762C10.2237 8.08682 10.3265 8.1771 10.446 8.23931C10.5656 8.30151 10.6985 8.33378 10.8333 8.33334H16.6666C16.8243 8.3328 16.9789 8.37702 17.1125 8.46086C17.2461 8.5447 17.3531 8.66471 17.4212 8.80696C17.4893 8.94921 17.5156 9.10785 17.4971 9.26446C17.4786 9.42107 17.416 9.56921 17.3166 9.69168L9.06664 18.1917C9.00475 18.2631 8.92042 18.3114 8.82749 18.3286C8.73455 18.3457 8.63854 18.3308 8.5552 18.2863C8.47186 18.2417 8.40615 18.1701 8.36886 18.0833C8.33157 17.9964 8.32491 17.8995 8.34997 17.8083L9.94997 12.7917C9.99715 12.6654 10.013 12.5296 9.99615 12.3958C9.9793 12.2621 9.93026 12.1344 9.85323 12.0238C9.77621 11.9132 9.6735 11.8229 9.55391 11.7607C9.43433 11.6985 9.30144 11.6662 9.16664 11.6667H3.33331Z" stroke="white" stroke-width="1.66667" stroke-linecap="round" stroke-linejoin="round"/>
</svg>
