<svg width="32" height="32" viewBox="0 0 32 32" fill="none" xmlns="http://www.w3.org/2000/svg">
<path d="M26.6667 17.3333C26.6667 24 22 27.3333 16.4533 29.2666C16.1629 29.3651 15.8474 29.3604 15.56 29.2533C10 27.3333 5.33334 24 5.33334 17.3333V7.99998C5.33334 7.64636 5.47382 7.30722 5.72387 7.05717C5.97392 6.80712 6.31305 6.66665 6.66668 6.66665C9.33334 6.66665 12.6667 5.06665 14.9867 3.03998C15.2691 2.79864 15.6285 2.66605 16 2.66605C16.3715 2.66605 16.7309 2.79864 17.0133 3.03998C19.3467 5.07998 22.6667 6.66665 25.3333 6.66665C25.687 6.66665 26.0261 6.80712 26.2762 7.05717C26.5262 7.30722 26.6667 7.64636 26.6667 7.99998V17.3333Z" stroke="white" stroke-width="2.66667" stroke-linecap="round" stroke-linejoin="round"/>
</svg>
