<svg width="16" height="16" viewBox="0 0 16 16" fill="none" xmlns="http://www.w3.org/2000/svg">
<g clip-path="url(#clip0_3_1763)">
<path d="M7.99998 14.6666C11.6819 14.6666 14.6666 11.6818 14.6666 7.99992C14.6666 4.31802 11.6819 1.33325 7.99998 1.33325C4.31808 1.33325 1.33331 4.31802 1.33331 7.99992C1.33331 11.6818 4.31808 14.6666 7.99998 14.6666Z" stroke="#C27AFF" stroke-width="1.33333" stroke-linecap="round" stroke-linejoin="round"/>
<path d="M6.06 6.00014C6.21673 5.55458 6.5261 5.17887 6.9333 4.93956C7.3405 4.70024 7.81926 4.61276 8.28478 4.69261C8.7503 4.77246 9.17254 5.01449 9.47672 5.37582C9.78089 5.73716 9.94737 6.19448 9.94666 6.6668C9.94666 8.00014 7.94666 8.6668 7.94666 8.6668" stroke="#C27AFF" stroke-width="1.33333" stroke-linecap="round" stroke-linejoin="round"/>
<path d="M8 11.3333H8.00667" stroke="#C27AFF" stroke-width="1.33333" stroke-linecap="round" stroke-linejoin="round"/>
</g>
<defs>
<clipPath id="clip0_3_1763">
<rect width="16" height="16" fill="white"/>
</clipPath>
</defs>
</svg>
