<svg width="28" height="28" viewBox="0 0 28 28" fill="none" xmlns="http://www.w3.org/2000/svg">
<path d="M7 12.8333H11.6667" stroke="white" stroke-width="2.33333" stroke-linecap="round" stroke-linejoin="round"/>
<path d="M9.33331 10.5V15.1667" stroke="white" stroke-width="2.33333" stroke-linecap="round" stroke-linejoin="round"/>
<path d="M17.5 14H17.5117" stroke="white" stroke-width="2.33333" stroke-linecap="round" stroke-linejoin="round"/>
<path d="M21 11.6667H21.0117" stroke="white" stroke-width="2.33333" stroke-linecap="round" stroke-linejoin="round"/>
<path d="M20.2066 5.83331H7.79331C6.63864 5.83358 5.52506 6.26192 4.66785 7.03552C3.81064 7.80912 3.27067 8.87305 3.15231 10.0216C3.14531 10.0823 3.14065 10.1395 3.13248 10.199C3.03798 10.9853 2.33331 16.8653 2.33331 18.6666C2.33331 19.5949 2.70206 20.4851 3.35844 21.1415C4.01482 21.7979 4.90506 22.1666 5.83331 22.1666C6.99998 22.1666 7.58331 21.5833 8.16665 21L9.81631 19.3503C10.2538 18.9127 10.8472 18.6668 11.466 18.6666H16.534C17.1528 18.6668 17.7462 18.9127 18.1836 19.3503L19.8333 21C20.4166 21.5833 21 22.1666 22.1666 22.1666C23.0949 22.1666 23.9851 21.7979 24.6415 21.1415C25.2979 20.4851 25.6666 19.5949 25.6666 18.6666C25.6666 16.8641 24.962 10.9853 24.8675 10.199C24.8593 10.1406 24.8546 10.0823 24.8476 10.0228C24.7296 8.87401 24.1897 7.8098 23.3325 7.03595C22.4752 6.26211 21.3615 5.83361 20.2066 5.83331Z" stroke="white" stroke-width="2.33333" stroke-linecap="round" stroke-linejoin="round"/>
</svg>
