<svg width="40" height="40" viewBox="0 0 40 40" fill="none" xmlns="http://www.w3.org/2000/svg">
<path d="M10 18.3333H16.6667" stroke="white" stroke-width="3.33333" stroke-linecap="round" stroke-linejoin="round"/>
<path d="M13.3333 15V21.6667" stroke="white" stroke-width="3.33333" stroke-linecap="round" stroke-linejoin="round"/>
<path d="M25 20H25.0167" stroke="white" stroke-width="3.33333" stroke-linecap="round" stroke-linejoin="round"/>
<path d="M30 16.6667H30.0167" stroke="white" stroke-width="3.33333" stroke-linecap="round" stroke-linejoin="round"/>
<path d="M28.8667 8.33325H11.1333C9.4838 8.33364 7.89298 8.94555 6.66839 10.0507C5.4438 11.1558 4.67241 12.6757 4.50334 14.3166C4.49334 14.4033 4.48667 14.4849 4.475 14.5699C4.34 15.6933 3.33334 24.0933 3.33334 26.6666C3.33334 27.9927 3.86012 29.2644 4.7978 30.2021C5.73548 31.1398 7.00725 31.6666 8.33334 31.6666C10 31.6666 10.8333 30.8333 11.6667 29.9999L14.0233 27.6433C14.6483 27.0181 15.496 26.6668 16.38 26.6666H23.62C24.504 26.6668 25.3517 27.0181 25.9767 27.6433L28.3333 29.9999C29.1667 30.8333 30 31.6666 31.6667 31.6666C32.9928 31.6666 34.2645 31.1398 35.2022 30.2021C36.1399 29.2644 36.6667 27.9927 36.6667 26.6666C36.6667 24.0916 35.66 15.6933 35.525 14.5699C35.5133 14.4866 35.5067 14.4033 35.4967 14.3183C35.328 12.6771 34.5568 11.1568 33.3321 10.0513C32.1075 8.94582 30.5165 8.33368 28.8667 8.33325Z" stroke="white" stroke-width="3.33333" stroke-linecap="round" stroke-linejoin="round"/>
</svg>
