<svg width="40" height="40" viewBox="0 0 40 40" fill="none" xmlns="http://www.w3.org/2000/svg">
<path d="M6.66667 23.3334C6.35128 23.3345 6.04206 23.2461 5.77493 23.0784C5.5078 22.9107 5.29373 22.6707 5.15759 22.3862C5.02145 22.1017 4.96883 21.7844 5.00584 21.4712C5.04285 21.158 5.16797 20.8617 5.36667 20.6168L21.8667 3.61678C21.9904 3.47391 22.1591 3.37737 22.345 3.343C22.5308 3.30862 22.7229 3.33846 22.8896 3.42762C23.0562 3.51677 23.1876 3.65994 23.2622 3.83362C23.3368 4.00731 23.3501 4.20119 23.3 4.38344L20.1 14.4168C20.0056 14.6693 19.974 14.941 20.0077 15.2085C20.0414 15.4759 20.1394 15.7312 20.2935 15.9525C20.4475 16.1737 20.653 16.3543 20.8921 16.4787C21.1313 16.6031 21.3971 16.6677 21.6667 16.6668H33.3333C33.6487 16.6657 33.958 16.7541 34.2251 16.9218C34.4922 17.0895 34.7063 17.3295 34.8424 17.614C34.9786 17.8985 35.0312 18.2158 34.9942 18.529C34.9572 18.8422 34.832 19.1385 34.6333 19.3834L18.1333 36.3834C18.0096 36.5263 17.8409 36.6228 17.655 36.6572C17.4692 36.6916 17.2771 36.6618 17.1105 36.5726C16.9438 36.4834 16.8124 36.3403 16.7378 36.1666C16.6632 35.9929 16.6499 35.799 16.7 35.6168L19.9 25.5834C19.9944 25.3309 20.0261 25.0592 19.9924 24.7918C19.9587 24.5243 19.8606 24.269 19.7065 24.0477C19.5525 23.8265 19.3471 23.6459 19.1079 23.5215C18.8687 23.3971 18.6029 23.3326 18.3333 23.3334H6.66667Z" stroke="white" stroke-width="3.33333" stroke-linecap="round" stroke-linejoin="round"/>
</svg>
